<?xml version="1.0" encoding="utf-8"?>
<!-- Generator: Adobe Illustrator 16.0.0, SVG Export Plug-In . SVG Version: 6.00 Build 0)  -->
<!DOCTYPE svg PUBLIC "-//W3C//DTD SVG 1.1//EN" "http://www.w3.org/Graphics/SVG/1.1/DTD/svg11.dtd">
<svg version="1.1" id="Layer_1" xmlns="http://www.w3.org/2000/svg" xmlns:xlink="http://www.w3.org/1999/xlink" x="0px" y="0px"
	 width="566.93px" height="566.93px" viewBox="0 0 566.93 566.93" enable-background="new 0 0 566.93 566.93" xml:space="preserve">
<circle fill="#E8E5DC" stroke="#2B2727" stroke-width="35" stroke-linecap="round" stroke-miterlimit="10" cx="283.465" cy="283.465" r="253.77"/>
<g>
	<defs>
		<circle id="SVGID_1_" cx="283.465" cy="283.465" r="263.711"/>
	</defs>
	<clipPath id="SVGID_2_">
		<use xlink:href="#SVGID_1_"  overflow="visible"/>
	</clipPath>
	
		<path clip-path="url(#SVGID_2_)" fill="none" stroke="#60CBED" stroke-width="35" stroke-linecap="round" stroke-miterlimit="10" d="
		M433.815,66.786c-25.849,14.979-129.759,70.845-133.111,193.75s-28.496,138.752-111.173,175.419
		c-64.246,28.492-175.978,22.42-212.291,60.336"/>
	
		<path clip-path="url(#SVGID_2_)" fill="none" stroke="#FDB632" stroke-width="35" stroke-linecap="round" stroke-miterlimit="10" d="
		M471.4,551.284c-14.98-25.85-70.846-129.76-193.751-133.111c-122.905-3.354-138.752-28.496-175.419-111.174
		c-28.492-64.246-22.42-175.978-60.336-212.291"/>
</g>
<circle fill="none" stroke="#2B2727" stroke-width="35" stroke-linecap="round" stroke-miterlimit="10" cx="283.465" cy="283.465" r="253.77"/>
<g>
	<g>
		
			<circle fill="none" stroke="#2B2727" stroke-width="35" stroke-linecap="round" stroke-miterlimit="10" cx="371.297" cy="269.052" r="66.006"/>
		
			<line fill="none" stroke="#2B2727" stroke-width="35" stroke-linecap="round" stroke-miterlimit="10" x1="305.291" y1="203.045" x2="305.291" y2="467.072"/>
	</g>
	<g>
		<path fill="none" stroke="#2B2727" stroke-width="35" stroke-linecap="round" stroke-miterlimit="10" d="M129.626,269.052
			c0-36.455,29.552-66.007,66.006-66.007c36.455,0,66.007,29.552,66.007,66.007v66.005"/>
		
			<line fill="none" stroke="#2B2727" stroke-width="35" stroke-linecap="round" stroke-miterlimit="10" x1="129.626" y1="203.045" x2="129.626" y2="335.058"/>
	</g>
</g>
</svg>
